<svg width="929" height="1019" viewBox="0 0 929 1019" fill="none" xmlns="http://www.w3.org/2000/svg">
<g opacity="0.5">
<path d="M714.508 231.003L597.002 299.867" stroke="#B2B2B2"/>
<path d="M645.644 113.497L528.138 182.361" stroke="url(#paint0_linear_4537_888)"/>
<path d="M597.002 299.867L528.138 182.361" stroke="#B2B2B2"/>
<path d="M714.508 231.003L645.644 113.497" stroke="#B2B2B2"/>
<path d="M597.002 299.867L440.328 391.686" stroke="#B2B2B2"/>
<path d="M528.138 182.361L371.464 274.18" stroke="url(#paint1_linear_4537_888)"/>
<path d="M440.328 391.686L371.463 274.18" stroke="#B2B2B2"/>
<path d="M597.002 299.867L528.138 182.361" stroke="url(#paint2_linear_4537_888)"/>
<path d="M97.2831 434.864L214.789 366" stroke="#B2B2B2"/>
<path d="M166.147 552.37L283.653 483.506" stroke="#B2B2B2"/>
<path d="M214.789 366L283.653 483.506" stroke="#B2B2B2"/>
<path d="M97.2831 434.864L166.147 552.37" stroke="#B2B2B2"/>
<path d="M214.789 366L371.464 274.181" stroke="url(#paint3_linear_4537_888)"/>
<path d="M283.653 483.506L440.328 391.687" stroke="#B2B2B2"/>
<path d="M214.789 366L283.653 483.506" stroke="#B2B2B2"/>
<path d="M440.328 391.686L557.833 322.822" stroke="#B2B2B2"/>
<path d="M509.192 509.192L626.698 440.328" stroke="#B2B2B2"/>
<path d="M557.834 322.822L626.698 440.328" stroke="#B2B2B2"/>
<path d="M557.833 322.822L714.508 231.003" stroke="#B2B2B2"/>
<path d="M626.698 440.328L783.372 348.508" stroke="#B2B2B2"/>
<path d="M714.508 231.002L783.372 348.508" stroke="url(#paint4_linear_4537_888)"/>
<path d="M557.833 322.822L626.698 440.328" stroke="#B2B2B2"/>
<path d="M509.192 509.192L391.686 578.056" stroke="#B2B2B2"/>
<path d="M440.328 391.686L322.822 460.55" stroke="#B2B2B2"/>
<path d="M391.687 578.056L322.822 460.55" stroke="#B2B2B2"/>
<path d="M391.686 578.056L235.012 669.875" stroke="#B2B2B2"/>
<path d="M322.822 460.55L166.148 552.369" stroke="#B2B2B2"/>
<path d="M235.012 669.876L166.148 552.37" stroke="url(#paint5_linear_4537_888)"/>
<path d="M391.686 578.056L322.822 460.55" stroke="#B2B2B2"/>
<path d="M852.207 466.007L734.701 534.872" stroke="#B2B2B2"/>
<path d="M783.343 348.502L665.837 417.366" stroke="#B2B2B2"/>
<path d="M734.702 534.872L665.837 417.366" stroke="#B2B2B2"/>
<path d="M852.207 466.007L783.343 348.501" stroke="#B2B2B2"/>
<path d="M734.701 534.872L578.027 626.691" stroke="#B2B2B2"/>
<path d="M665.837 417.366L509.162 509.185" stroke="#B2B2B2"/>
<path d="M578.027 626.691L509.162 509.185" stroke="#B2B2B2"/>
<path d="M734.701 534.872L665.837 417.366" stroke="url(#paint6_linear_4537_888)"/>
<path d="M234.982 669.869L352.488 601.004" stroke="#B2B2B2"/>
<path d="M303.847 787.374L421.353 718.51" stroke="#B2B2B2"/>
<path d="M352.488 601.004L421.352 718.51" stroke="#B2B2B2"/>
<path d="M234.982 669.869L303.846 787.374" stroke="#B2B2B2"/>
<path d="M352.489 601.004L509.163 509.185" stroke="url(#paint7_linear_4537_888)"/>
<path d="M421.353 718.51L578.027 626.69" stroke="#B2B2B2"/>
<path d="M352.489 601.004L421.353 718.51" stroke="#B2B2B2"/>
<path d="M578.027 626.691L695.533 557.826" stroke="#B2B2B2"/>
<path d="M646.891 744.197L764.397 675.332" stroke="#B2B2B2"/>
<path d="M695.532 557.826L764.397 675.332" stroke="#B2B2B2"/>
<path d="M695.533 557.826L852.207 466.007" stroke="url(#paint8_linear_4537_888)"/>
<path d="M764.397 675.332L921.072 583.513" stroke="url(#paint9_linear_4537_888)"/>
<path d="M852.207 466.007L921.071 583.513" stroke="#B2B2B2"/>
<path d="M695.533 557.826L764.397 675.332" stroke="#B2B2B2"/>
<path d="M646.891 744.197L529.385 813.061" stroke="#B2B2B2"/>
<path d="M578.027 626.691L460.521 695.555" stroke="#B2B2B2"/>
<path d="M529.385 813.061L460.521 695.555" stroke="#B2B2B2"/>
<path d="M529.385 813.061L372.711 904.88" stroke="#B2B2B2"/>
<path d="M460.521 695.555L303.846 787.375" stroke="#B2B2B2"/>
<path d="M372.711 904.88L303.846 787.374" stroke="#B2B2B2"/>
<path d="M529.385 813.061L460.521 695.555" stroke="url(#paint10_linear_4537_888)"/>
</g>
<defs>
<linearGradient id="paint0_linear_4537_888" x1="621.652" y1="107.235" x2="562.83" y2="160.097" gradientUnits="userSpaceOnUse">
<stop stop-color="#13B0F5"/>
<stop offset="1" stop-color="#CA24B4"/>
</linearGradient>
<linearGradient id="paint1_linear_4537_888" x1="527.722" y1="183.954" x2="427.61" y2="316.567" gradientUnits="userSpaceOnUse">
<stop stop-color="#E70FAA"/>
<stop offset="1" stop-color="#13B0F5"/>
</linearGradient>
<linearGradient id="paint2_linear_4537_888" x1="603.264" y1="275.875" x2="550.402" y2="217.053" gradientUnits="userSpaceOnUse">
<stop stop-color="#13B0F5"/>
<stop offset="1" stop-color="#CA24B4"/>
</linearGradient>
<linearGradient id="paint3_linear_4537_888" x1="246.778" y1="374.349" x2="325.208" y2="303.866" gradientUnits="userSpaceOnUse">
<stop stop-color="#00C0FD"/>
<stop offset="0.421875" stop-color="#E70FAA"/>
<stop offset="1" stop-color="#00C0FD"/>
</linearGradient>
<linearGradient id="paint4_linear_4537_888" x1="708.246" y1="254.994" x2="761.108" y2="313.816" gradientUnits="userSpaceOnUse">
<stop stop-color="#13B0F5"/>
<stop offset="0.0001" stop-color="#505685"/>
<stop offset="0.317708" stop-color="#CA24B4"/>
<stop offset="1" stop-color="#13B0F5"/>
</linearGradient>
<linearGradient id="paint5_linear_4537_888" x1="235.012" y1="669.876" x2="134.428" y2="594.956" gradientUnits="userSpaceOnUse">
<stop stop-color="#8E34FF"/>
<stop offset="0.494792" stop-color="#CA24B4"/>
<stop offset="1" stop-color="#8E34FF"/>
</linearGradient>
<linearGradient id="paint6_linear_4537_888" x1="740.963" y1="510.88" x2="688.101" y2="452.058" gradientUnits="userSpaceOnUse">
<stop stop-color="#CA24B4"/>
<stop offset="0.234375" stop-color="#13B0F5"/>
</linearGradient>
<linearGradient id="paint7_linear_4537_888" x1="392.558" y1="577.859" x2="465.931" y2="479.798" gradientUnits="userSpaceOnUse">
<stop stop-color="#13B0F5"/>
<stop offset="0.75" stop-color="#CA24B4"/>
<stop offset="1" stop-color="#13B0F5"/>
</linearGradient>
<linearGradient id="paint8_linear_4537_888" x1="727.522" y1="566.175" x2="805.951" y2="495.692" gradientUnits="userSpaceOnUse">
<stop stop-color="#8643DC"/>
<stop offset="0.0001" stop-color="#8643DC"/>
<stop offset="0.317708" stop-color="#CA24B4"/>
<stop offset="1" stop-color="#8643DC"/>
</linearGradient>
<linearGradient id="paint9_linear_4537_888" x1="796.386" y1="683.681" x2="874.816" y2="613.198" gradientUnits="userSpaceOnUse">
<stop stop-color="#8643DC"/>
<stop offset="0.0001" stop-color="#8643DC"/>
<stop offset="0.317708" stop-color="#CA24B4"/>
<stop offset="1" stop-color="#8643DC"/>
</linearGradient>
<linearGradient id="paint10_linear_4537_888" x1="529.385" y1="813.061" x2="428.801" y2="738.142" gradientUnits="userSpaceOnUse">
<stop stop-color="#13B0F5"/>
<stop offset="0.0582928" stop-color="#CA24B4"/>
<stop offset="1" stop-color="#13B0F5"/>
</linearGradient>
</defs>
</svg>
